<svg width="24" height="24" viewBox="0 0 24 24" fill="none" xmlns="http://www.w3.org/2000/svg">
<path fill-rule="evenodd" clip-rule="evenodd" d="M20.883 7.87092C19.3841 7.05092 17.7792 6.62629 16.1065 6.35514C15.9359 6.32711 15.7686 6.29645 15.6034 6.26617C15.2576 6.20278 14.9209 6.14106 14.5819 6.10864C13.9068 6.04405 13.2275 5.99231 12.5507 6.00094C11.5809 6.01331 10.6101 6.0606 9.64271 6.13932C8.84874 6.20394 8.05449 6.30379 7.26883 6.44595C6.09744 6.65789 4.94666 6.97427 3.85126 7.49977C3.60785 7.61654 3.36306 7.73502 3.1334 7.88094C2.95933 7.99154 2.78123 8.09717 2.60301 8.20288C2.12881 8.48415 1.65378 8.76591 1.25162 9.14287C0.723521 9.63788 0.365651 10.314 0.13656 11.0984C-0.0993797 11.9062 -0.0169737 12.602 0.286735 13.3236C0.783007 14.5027 1.69359 15.2132 2.66271 15.8137C3.06673 16.0641 3.50523 16.2449 3.94405 16.4259C4.16977 16.5189 4.39557 16.6121 4.61681 16.7147C6.22392 17.4602 7.93131 17.7202 9.6384 17.9019C10.8453 18.0303 12.0711 18.012 13.2853 17.9632C14.604 17.9102 15.9144 17.7307 17.2105 17.4106C18.7782 17.0234 20.3074 16.5343 21.6909 15.6037C22.7471 14.8931 23.5951 14.0171 23.9118 12.5789C24.1333 11.5725 23.9277 10.7564 23.4058 9.99384C22.7463 9.03044 21.8439 8.39659 20.883 7.87092ZM13.4697 14.8358L13.433 15.2072C13.4111 15.2649 13.3902 15.321 13.3698 15.3756C13.2785 15.62 13.1981 15.8352 13.0932 16.0343C13.0488 16.1184 12.9137 16.1854 12.8187 16.1877C12.0401 16.2066 11.2609 16.2212 10.4826 16.2034C10.3596 16.2006 10.2311 16.0874 10.1176 15.9875C10.1027 15.9744 10.0881 15.9615 10.0738 15.9492C10.0303 15.9115 10.0064 15.846 9.98252 15.7802C9.97115 15.7489 9.95975 15.7176 9.94621 15.6892C9.57987 14.9209 9.61528 14.8326 10.3724 14.8179C11.0914 14.8039 11.8107 14.8041 12.53 14.8043C12.7929 14.8044 13.0558 14.8045 13.3188 14.8038C13.3457 14.8038 13.3727 14.811 13.4069 14.8202C13.4254 14.8251 13.4459 14.8306 13.4697 14.8358ZM22.3708 11.9663C22.5116 11.9638 22.6523 11.9614 22.7931 11.9579C23.253 11.974 23.2718 12.0255 23.2025 12.4391C23.097 13.0688 22.7387 13.5008 22.4175 13.8883C22.3915 13.9197 22.3656 13.9509 22.3402 13.9818L20.8062 13.0483C20.81 12.9936 20.812 12.9322 20.8142 12.8664C20.8201 12.6854 20.8272 12.4707 20.8755 12.268C20.9028 12.1531 21.0893 12.0188 21.2107 12.0095C21.5964 11.9797 21.9836 11.973 22.3708 11.9663ZM9.97383 8.27061C10.0291 8.05008 10.0863 7.82166 10.3609 7.77778C10.4842 7.78833 10.6004 7.80047 10.7119 7.81214C10.9099 7.83285 11.0934 7.85204 11.2772 7.85808C11.3415 7.86019 11.406 7.86288 11.4705 7.86559C11.7772 7.87842 12.0861 7.89134 12.3854 7.84191C12.7839 7.7761 12.9239 7.99301 13.0285 8.34908C13.1888 8.89432 13.1643 8.95723 12.659 8.95498C11.832 8.95129 11.0049 8.93497 10.1781 8.91376C9.84031 8.90509 9.78931 8.82638 9.92261 8.45134C9.94276 8.39462 9.95822 8.33293 9.97383 8.27061ZM22.5888 10.2573C22.6017 10.2761 22.6146 10.2949 22.6278 10.3133C22.681 10.4113 22.7332 10.5055 22.784 10.5972C22.9214 10.8451 23.0489 11.0751 23.1598 11.3146C23.255 11.5202 23.1836 11.6378 22.954 11.6336C22.394 11.6234 21.8337 11.6245 21.2737 11.6323L21.2594 11.6325C21.0178 11.6361 20.8589 11.6384 20.8211 11.248C20.8166 11.2018 20.8122 11.1587 20.8082 11.1185C20.7513 10.5574 20.7507 10.5512 21.2869 10.3094C21.4276 10.2459 21.5583 10.1527 21.6878 10.0603C21.7098 10.0446 21.7318 10.029 21.7537 10.0135C22.1422 9.73964 22.1734 9.74218 22.5023 10.1388C22.5333 10.1761 22.5611 10.2167 22.5888 10.2573ZM16.4044 15.0773C16.0979 15.6873 15.6526 16.0454 15.1419 16.3203C14.5612 16.2855 14.0344 16.2423 13.4926 16.1979C13.5272 16.0768 13.5596 15.9593 13.5912 15.8448C13.6768 15.5345 13.7565 15.2457 13.856 14.9656C13.885 14.8841 14.0513 14.8151 14.1509 14.8203C14.7739 14.8532 15.3964 14.9041 16.0182 14.9607C16.1029 14.9684 16.186 14.9992 16.2739 15.0317C16.316 15.0472 16.3593 15.0632 16.4044 15.0773ZM13.2424 7.81555L14.2221 7.65622L14.243 7.65608C14.4143 7.65492 14.5339 7.65411 14.6479 7.62549C15.3268 7.45502 15.9641 7.87398 16.1867 8.66928C16.1313 8.68075 16.0764 8.69425 16.0217 8.7077C15.9032 8.73683 15.7856 8.76572 15.667 8.77324C15.0091 8.81493 14.3506 8.84726 13.6919 8.8668C13.6172 8.86902 13.4957 8.78602 13.4718 8.71211C13.4072 8.51308 13.3589 8.3075 13.3066 8.08476C13.2862 7.99785 13.2652 7.90832 13.2424 7.81555ZM0.797904 12.3781C0.733324 12.131 0.859436 12.0333 1.06472 12.0226C1.16203 12.0254 1.25661 12.0289 1.349 12.0323C1.68701 12.0448 1.99572 12.0562 2.30215 12.0319C2.54161 12.013 2.63324 12.1317 2.67783 12.3463C2.72021 12.5502 2.75654 12.7557 2.79015 12.9459C2.80389 13.0236 2.81718 13.0987 2.83024 13.1702C2.74626 13.2352 2.66368 13.2997 2.58197 13.3635C2.33826 13.5539 2.10228 13.7382 1.86006 13.9117C1.80858 13.9486 1.682 13.9316 1.63267 13.8845C1.21217 13.4826 0.951082 12.9643 0.797904 12.3781ZM7.18323 15.1258L7.62987 15.0477C8.09818 14.9803 8.50767 14.9252 8.91811 14.8812C9.18047 14.8531 9.35307 14.9434 9.42696 15.2726C9.47797 15.4999 9.56322 15.7176 9.65245 15.9455C9.69268 16.0482 9.73371 16.153 9.77278 16.2617C9.63584 16.2786 9.50032 16.3189 9.36536 16.359C9.06233 16.4491 8.76216 16.5383 8.45524 16.3594C7.96522 16.0737 7.49725 15.7381 7.18323 15.1258ZM0.774453 11.6662C0.93324 11.0334 1.17437 10.5278 1.53912 10.0955C1.56987 10.0847 1.59963 10.0735 1.62845 10.0627C1.75323 10.016 1.86025 9.97588 1.95266 10.0013C2.2207 10.0752 2.48439 10.1813 2.73592 10.3084C2.80543 10.3436 2.87341 10.5069 2.8604 10.5967C2.81843 10.8864 2.74898 11.1732 2.66664 11.4525C2.64146 11.5379 2.54201 11.6548 2.47415 11.6568C2.05109 11.6695 1.62769 11.6683 1.18748 11.667C1.05157 11.6666 0.914054 11.6662 0.774453 11.6662ZM21.618 13.965C21.992 14.2127 21.9877 14.3489 21.6345 14.6336C21.4582 14.7378 21.2881 14.8436 21.1209 14.9476C20.7608 15.1716 20.4148 15.3869 20.0518 15.5574C19.9448 15.6077 19.7883 15.5277 19.6368 15.4502C19.5688 15.4155 19.5019 15.3813 19.4408 15.3595C19.5407 15.2075 19.6372 15.0598 19.7314 14.9157C20.0243 14.4675 20.2948 14.0536 20.5756 13.6486C20.6244 13.5781 20.7833 13.5362 20.8615 13.5689C21.1218 13.6778 21.3792 13.8068 21.618 13.965ZM7.15799 8.68551C7.48204 8.16951 7.87994 7.86088 8.33624 7.62802C8.77901 7.6399 9.17268 7.67673 9.56468 7.72897C9.61702 7.73594 9.70897 7.83482 9.7013 7.86768C9.689 7.92041 9.67713 7.97357 9.66524 8.02685C9.60745 8.28571 9.54906 8.54723 9.43743 8.77539C9.3892 8.87398 9.13929 8.89045 8.9857 8.87817C8.56417 8.84446 8.14355 8.79667 7.69389 8.74558C7.52017 8.72584 7.34211 8.70561 7.15799 8.68551ZM20.2723 8.52977C20.7716 8.77818 21.2704 9.02635 21.6845 9.44544C21.3999 9.88044 20.9955 10.0345 20.5671 10.1241C20.5086 10.1364 20.4171 10.076 20.3708 10.0191C20.037 9.60838 19.7087 9.19216 19.3803 8.77596C19.3412 8.72631 19.302 8.67666 19.2628 8.62702C19.2491 8.60959 19.24 8.58755 19.2284 8.55913C19.2221 8.54369 19.215 8.52636 19.206 8.50688C19.3996 8.2937 19.5963 8.18109 19.8802 8.33078C20.0099 8.3992 20.1411 8.46449 20.2723 8.52977ZM16.5947 15.5859C16.912 15.0516 16.9712 15.019 17.525 15.1727C17.8856 15.2319 18.1869 15.2937 18.4881 15.3555L18.5061 15.4613C18.4561 15.5016 18.4075 15.5451 18.3589 15.5887C18.2527 15.6838 18.1466 15.7789 18.0264 15.8398C17.7098 16.0003 17.3892 16.1507 17.0686 16.3012C16.8011 16.4268 16.5335 16.5523 16.2684 16.6837C16.0076 16.8128 15.8154 16.7507 15.6453 16.4898C15.7083 16.4374 15.7716 16.3859 15.8348 16.3344C15.9846 16.2124 16.1336 16.0911 16.2758 15.9606C16.3945 15.8517 16.5106 15.7275 16.5947 15.5859ZM5.18246 15.5498L5.7824 15.3219C5.81191 15.3198 5.83661 15.3184 5.85784 15.3172C5.90858 15.3144 5.93956 15.3127 5.96931 15.305C6.00303 15.2963 6.03639 15.2873 6.06939 15.2783C6.43077 15.1804 6.75007 15.0938 7.04324 15.6114C7.21336 15.9118 7.48787 16.139 7.77929 16.3802C7.91376 16.4915 8.05182 16.6058 8.18489 16.7316C8.13978 16.7431 8.09685 16.7588 8.05621 16.7737C7.97508 16.8035 7.90301 16.8299 7.8407 16.8127C6.92652 16.5599 6.07413 16.1448 5.18246 15.5498ZM3.16476 15.139C3.05901 15.0774 2.95326 15.0157 2.84745 14.9542C2.7394 14.8779 2.64125 14.8035 2.54749 14.7325C2.42671 14.641 2.3132 14.555 2.19521 14.4775C1.97916 14.3355 2.032 14.2047 2.19523 14.0878L2.20673 14.0795C2.39071 13.9477 2.57939 13.8126 2.78312 13.7338C2.87563 13.698 3.0534 13.7608 3.12083 13.8477C3.4172 14.2296 3.70195 14.6227 4.00372 15.0393C4.10786 15.1831 4.21403 15.3297 4.3234 15.4796C4.2733 15.6129 4.1362 15.7015 3.91832 15.5763C3.66664 15.4316 3.4157 15.2853 3.16476 15.139ZM6.91456 8.33999C6.74578 8.53747 6.59154 8.6517 6.35058 8.56536C6.00389 8.49788 5.71361 8.4295 5.41408 8.35894C5.74319 7.86652 7.54781 7.11437 7.89738 7.33014C7.7989 7.42998 7.69943 7.52783 7.60029 7.62537C7.36395 7.85788 7.12945 8.08857 6.91456 8.33999ZM16.4434 8.26216C16.4261 8.22869 16.4088 8.19521 16.3908 8.16275C16.1551 7.85589 15.9519 7.59001 15.7488 7.32413C16.6169 7.42469 17.3529 7.79865 18.0548 8.35745C17.9871 8.37637 17.9195 8.39556 17.8519 8.41475C17.6902 8.46065 17.5284 8.50656 17.3659 8.54882C17.2939 8.56754 17.221 8.58154 17.148 8.59555C17.0903 8.60663 17.0325 8.61772 16.9752 8.63114C16.6712 8.70238 16.5574 8.48243 16.4434 8.26216ZM2.27054 9.52512C2.27064 9.49309 2.27075 9.46107 2.26865 9.43489C2.35496 9.37203 2.44018 9.30855 2.52482 9.2455C3.08837 8.82571 3.62611 8.42514 4.28918 8.35325L4.35677 8.4739C4.30127 8.53469 4.2457 8.5954 4.19013 8.65611C4.06053 8.79768 3.93094 8.93924 3.80225 9.08181C3.77515 9.11183 3.74794 9.14174 3.72073 9.17165C3.61193 9.29125 3.50307 9.41092 3.40127 9.53753C3.3595 9.58948 3.3179 9.66072 3.27734 9.73018C3.20515 9.8538 3.13627 9.97176 3.07561 9.96525C2.84921 9.94093 2.62839 9.83478 2.41137 9.73046C2.37148 9.71128 2.33172 9.69217 2.29208 9.67364C2.27008 9.66336 2.27031 9.59424 2.27054 9.52512ZM12.557 7.41388L12.2742 7.49588C12.0422 7.47394 11.816 7.48239 11.5939 7.49069C11.2164 7.50479 10.8505 7.51846 10.4869 7.38178C10.8982 6.6702 12.1215 6.69555 12.557 7.41388ZM10.6968 16.5574H12.4783C12.5131 16.6405 12.5074 16.7548 12.4603 16.7826C11.9685 17.074 11.445 16.9999 10.9284 16.9022C10.8626 16.8897 10.8058 16.8183 10.749 16.7469C10.7227 16.714 10.6965 16.681 10.6694 16.6538L10.6968 16.5574ZM14.575 7.23673L13.4617 7.3987C13.08 7.45953 12.8798 7.29474 12.7276 6.91245C13.3829 6.86378 13.9877 6.84461 14.5677 7.10553L14.575 7.23673ZM19.4579 15.8368L18.7823 16.1361C18.5481 16.1915 18.3674 16.2386 18.1504 16.2952C18.6458 15.665 19.1315 15.4811 19.4579 15.8368ZM12.9684 17.0061C13.1621 16.5497 13.1915 16.5299 13.5317 16.5476C13.7796 16.5832 13.9696 16.6201 14.1597 16.6569L14.1605 16.7646L12.9684 17.0061ZM9.20446 7.25521C9.76214 7.54146 10.0354 7.45489 10.2701 6.80788C9.87268 6.95775 9.54723 7.08049 9.20446 7.25521ZM9.50563 16.7614C9.74928 16.6292 9.99019 16.5548 10.2352 16.773C10.1472 16.8707 10.023 16.9605 9.90178 16.9558C9.76738 16.9506 9.6357 16.8589 9.50563 16.7614ZM18.4991 8.07534L18.4959 8.07379C18.3598 7.97931 18.2663 7.91823 18.1728 7.85721L18.1918 7.76845L19.0618 7.95805C18.8464 8.242 18.6725 8.15855 18.4991 8.07534ZM12.3628 9.33456C12.4591 9.31176 12.5039 9.30775 12.5488 9.30375C12.6784 9.34692 12.8033 9.37083 12.9222 9.35067C13.121 9.31696 13.2487 9.33552 13.2459 9.61602C13.2454 9.66165 13.3011 9.70798 13.3567 9.7543C13.3824 9.77561 13.408 9.79692 13.4281 9.81817C13.4425 9.79242 13.461 9.76644 13.4796 9.74046C13.52 9.68375 13.5605 9.62704 13.558 9.57277C13.5459 9.30937 13.6709 9.2612 13.8677 9.25062C14.2442 9.23038 14.6206 9.20629 14.997 9.1822C15.344 9.15999 15.6911 9.13778 16.0382 9.11858C16.0507 9.11789 16.0634 9.11706 16.076 9.11622C16.2409 9.1053 16.4158 9.09372 16.417 9.3932C16.4172 9.44792 16.527 9.54398 16.586 9.54387C16.6372 9.54377 16.7279 9.43782 16.7324 9.37274C16.7502 9.11677 16.8413 9.01983 17.0863 8.98962C17.3684 8.95485 17.6475 8.89215 17.9268 8.82942C18.0968 8.79125 18.2669 8.75306 18.4376 8.72114C18.5414 8.70175 18.6783 8.69653 18.7578 8.75529C19.2658 9.13045 19.6957 9.5941 20.0496 10.2876C19.9324 10.2923 19.8204 10.2955 19.7122 10.2986C19.4506 10.3061 19.2109 10.313 18.9728 10.3383C18.8521 10.3511 18.6526 10.4346 18.6387 10.517C18.5999 10.7482 18.7756 10.7391 18.9226 10.7314C18.927 10.7312 18.9313 10.731 18.9356 10.7307C19.0366 10.7256 19.1377 10.7216 19.2388 10.7175C19.4615 10.7086 19.6841 10.6997 19.9059 10.6792C20.2384 10.6485 20.6079 11.081 20.5125 11.4402C20.4909 11.5215 20.3257 11.6004 20.2248 11.6032C19.8098 11.6149 19.3944 11.6133 18.9787 11.6118C18.8362 11.6112 18.6936 11.6107 18.5511 11.6107C18.4762 11.8951 18.5431 12.008 18.7727 12.0056C18.9477 12.0038 19.1229 12.0051 19.298 12.0063C19.6054 12.0085 19.9128 12.0107 20.2196 11.9964C20.4725 11.9847 20.5811 12.0564 20.5256 12.3497C20.5137 12.4129 20.5073 12.4783 20.501 12.5434C20.4905 12.652 20.48 12.7599 20.4437 12.8565C20.4144 12.9343 20.275 13.0108 20.1904 13.0046C19.9831 12.9893 19.7763 12.9648 19.5695 12.9403C19.3559 12.915 19.1423 12.8897 18.9281 12.8745C18.8708 12.8705 18.8104 12.9195 18.7501 12.9686C18.7223 12.9913 18.6944 13.0139 18.6669 13.0313C18.6939 13.0558 18.7202 13.0857 18.7466 13.1157C18.8042 13.1811 18.8617 13.2464 18.9255 13.2551C19.1081 13.2797 19.2926 13.2856 19.4772 13.2915C19.5986 13.2954 19.72 13.2993 19.8409 13.3085C20.1765 13.334 20.2506 13.4718 20.048 13.7647C19.8076 14.1124 19.5442 14.4406 19.2811 14.7686C19.2166 14.8489 19.1521 14.9292 19.0881 15.0098C19.0503 15.0572 18.9682 15.1003 18.9168 15.0889C18.4247 14.9803 17.9339 14.8649 17.4491 14.751C17.3232 14.7214 17.1977 14.6919 17.0727 14.6627C17.0727 14.6053 17.0737 14.5475 17.0747 14.4893C17.0773 14.3405 17.0799 14.1897 17.0657 14.041C17.0609 13.9908 17.0186 13.945 16.9763 13.8992C16.957 13.8783 16.9377 13.8573 16.9219 13.836C16.9049 13.8541 16.886 13.8711 16.8671 13.8882C16.8241 13.9271 16.781 13.9661 16.7597 14.0164C16.7399 14.0632 16.7395 14.1196 16.7391 14.1766C16.7389 14.2093 16.7386 14.2422 16.7347 14.2735C16.7009 14.5453 16.6135 14.6774 16.3141 14.6354C15.7394 14.5548 15.1573 14.5251 14.5774 14.5084C14.0501 14.4933 13.9991 14.4512 13.9703 13.8785C13.9667 13.8073 13.9157 13.739 13.8648 13.6708C13.8412 13.6393 13.8177 13.6078 13.7988 13.576C13.7794 13.6086 13.7539 13.6419 13.7285 13.6752C13.6733 13.7473 13.6182 13.8194 13.6243 13.8845C13.6762 14.4433 13.5233 14.4476 13.0428 14.4318C12.5008 14.414 11.9581 14.4204 11.4155 14.4268C11.1862 14.4296 10.957 14.4323 10.7278 14.4331C10.6322 14.4335 10.5347 14.441 10.4372 14.4484C10.214 14.4654 9.99074 14.4825 9.79076 14.4146C9.74026 14.3975 9.69176 14.3766 9.64504 14.3565C9.44152 14.2689 9.27179 14.1958 9.11733 14.5109C8.9668 14.5272 8.81628 14.5437 8.66577 14.5602C8.18348 14.6131 7.7012 14.666 7.21842 14.7126C7.1619 14.718 7.10341 14.6981 7.04157 14.677C7.01186 14.6668 6.98138 14.6564 6.94997 14.6484C6.94705 14.6184 6.94627 14.5882 6.94552 14.5587C6.94386 14.4939 6.9423 14.4327 6.91823 14.3858C6.88116 14.3136 6.80436 14.2468 6.73332 14.2255C6.70414 14.2167 6.60126 14.3374 6.6058 14.3916C6.6378 14.7724 6.43147 14.8072 6.1842 14.8489C6.1694 14.8514 6.15445 14.854 6.13939 14.8566C5.9343 14.8923 5.73259 14.951 5.53074 15.0097C5.37666 15.0545 5.22251 15.0993 5.06671 15.1339C4.93243 15.1638 4.73263 15.1913 4.65426 15.1103C4.58335 15.037 4.51106 14.9649 4.43843 14.8924C4.05417 14.5088 3.66032 14.1156 3.41056 13.4931C3.54711 13.4734 3.68074 13.4549 3.81221 13.4368C4.13356 13.3923 4.44204 13.3497 4.74894 13.2958C4.91827 13.2661 5.22698 13.1679 5.22335 13.1324C5.19453 12.851 5.01857 12.8862 4.8622 12.9175C4.82151 12.9257 4.78215 12.9336 4.74705 12.9355C4.38497 12.9559 4.02386 12.9977 3.643 13.0418C3.49001 13.0595 3.33383 13.0776 3.17312 13.0948L2.97756 12.0555H5.89057L6.01838 11.5775C6.00305 11.6267 5.88423 11.6603 5.81345 11.6601C4.93394 11.6583 4.05444 11.6492 3.17495 11.6402L3.16279 11.6401C3.13598 11.6398 3.10921 11.633 3.06625 11.6222C3.04029 11.6156 3.00841 11.6075 2.96703 11.5984C2.99648 11.504 3.02438 11.4103 3.05197 11.3177C3.12691 11.0662 3.19957 10.8224 3.29487 10.59C3.32461 10.5175 3.50068 10.4919 3.60943 10.4918C3.76922 10.4917 3.92905 10.4983 4.08885 10.5048C4.28679 10.5129 4.4847 10.521 4.68241 10.5164C4.73346 10.5152 4.78344 10.4569 4.83342 10.3985C4.85645 10.3716 4.87948 10.3447 4.90262 10.3234C4.87744 10.3029 4.85252 10.2774 4.8276 10.2519C4.77339 10.1965 4.71918 10.141 4.66232 10.1374C4.41931 10.1221 4.1754 10.1242 3.90121 10.1266C3.79434 10.1276 3.68286 10.1286 3.56504 10.1286C3.91396 9.42814 4.33876 9.00957 4.8518 8.68956C5.40724 8.79015 5.90659 8.89977 6.37758 9.00316C6.37758 9.15984 6.38482 9.29463 6.39165 9.42188C6.40422 9.65614 6.41542 9.86484 6.37758 10.1374L6.6058 10.21C6.64188 10.1062 6.639 10.0404 6.63565 9.96406C6.63173 9.87446 6.62717 9.77037 6.68423 9.57343C6.68542 9.56931 6.68661 9.5652 6.6878 9.5611C6.76714 9.28696 6.83708 9.04534 7.22396 9.1131C7.67789 9.19261 8.13964 9.21758 8.60121 9.24254C8.77065 9.2517 8.94006 9.26086 9.10905 9.27272C9.27449 9.28433 9.37908 9.32433 9.38988 9.55018C9.39331 9.62184 9.44723 9.69052 9.50115 9.75919C9.5256 9.79033 9.55005 9.82147 9.56979 9.85288C9.58705 9.8235 9.60801 9.79464 9.62896 9.76578C9.67439 9.70322 9.71981 9.64066 9.7276 9.57276C9.77287 9.17796 9.99957 9.22318 10.1964 9.26246C10.2561 9.27435 10.313 9.2857 10.3612 9.28411C10.8419 9.26829 11.3236 9.28996 11.8053 9.31163C11.9911 9.31999 12.177 9.32835 12.3628 9.33456Z" fill="black"/>
<path d="M16.058 10.5341H16.8498L17.3166 12.235L17.8155 10.5341H18.7126L17.7514 13.4884H16.9276L16.4333 11.7595L15.9344 13.4884H15.1151L14.1494 10.5341H15.0877L15.5865 12.235L16.058 10.5341Z" fill="black"/>
<path d="M11.557 10.5341H12.3488L12.8157 12.235L13.3145 10.5341H14.2116L13.2505 13.4884H12.4266L11.9323 11.7595L11.4334 13.4884H10.6141L9.64839 10.5341H10.5867L11.0856 12.235L11.557 10.5341Z" fill="black"/>
<path d="M7.05599 10.5341H7.84781L8.31466 12.235L8.81355 10.5341H9.71064L8.74947 13.4884H7.92562L7.43131 11.7595L6.93242 13.4884H6.11314L5.1474 10.5341H6.08568L6.58457 12.235L7.05599 10.5341Z" fill="#currentColor"/>
</svg>
